<svg xmlns="http://www.w3.org/2000/svg" width="560" height="200" viewBox="0 0 560 200" font-family="Segoe UI, Arial, sans-serif" font-size="12">
  <defs>
    <marker id="arr" markerWidth="8" markerHeight="8" refX="7" refY="3" orient="auto">
      <path d="M0,0 L8,3 L0,6 Z" fill="#64748b"/>
    </marker>
    <marker id="arr2" markerWidth="8" markerHeight="8" refX="7" refY="3" orient="auto">
      <path d="M0,0 L8,3 L0,6 Z" fill="#64748b"/>
    </marker>
  </defs>
  <title>Responsive viewport flow diagram</title>
  <rect width="560" height="200" fill="#fafafa"/>
  <text x="280" y="22" text-anchor="middle" font-size="14" font-weight="700" fill="#0f172a">Hinh 3 - Thich nghi bo cuc theo chieu rong (nguyen ly)</text>
  <rect x="30" y="50" width="140" height="120" rx="8" fill="#e0e7ff" stroke="#667eea"/>
  <text x="100" y="95" text-anchor="middle" fill="#312e81" font-weight="600">Hep</text>
  <text x="100" y="118" text-anchor="middle" fill="#475569" font-size="11">Mot cot</text>
  <text x="100" y="138" text-anchor="middle" fill="#475569" font-size="11">Cuon doc</text>
  <text x="100" y="158" text-anchor="middle" fill="#64748b" font-size="10">Dien thoai doc</text>
  <path d="M 180 110 L 220 110" stroke="#64748b" stroke-width="2" marker-end="url(#arr)"/>
  <rect x="230" y="50" width="140" height="120" rx="8" fill="#e0e7ff" stroke="#667eea"/>
  <text x="300" y="95" text-anchor="middle" fill="#312e81" font-weight="600">Trung binh</text>
  <text x="300" y="118" text-anchor="middle" fill="#475569" font-size="11">Hai cot</text>
  <text x="300" y="138" text-anchor="middle" fill="#475569" font-size="11">Mot phan song song</text>
  <text x="300" y="158" text-anchor="middle" fill="#64748b" font-size="10">May tinh bang / ngang</text>
  <path d="M 380 110 L 420 110" stroke="#64748b" stroke-width="2" marker-end="url(#arr2)"/>
  <rect x="430" y="50" width="100" height="120" rx="8" fill="#c7d2fe" stroke="#4f46e5"/>
  <text x="480" y="95" text-anchor="middle" fill="#1e1b4b" font-weight="600">Rong</text>
  <text x="480" y="118" text-anchor="middle" fill="#475569" font-size="11">Bon cot</text>
  <text x="480" y="138" text-anchor="middle" fill="#475569" font-size="11">metric</text>
  <text x="480" y="158" text-anchor="middle" fill="#64748b" font-size="10">Desktop</text>
</svg>
